<svg width="20" height="21" viewBox="0 0 20 21" fill="none" xmlns="http://www.w3.org/2000/svg">
<path fill-rule="evenodd" clip-rule="evenodd" d="M1.31863 10.2629C1.31863 12.5873 2.24051 14.8165 3.88145 16.4601C5.52239 18.1037 7.74799 19.027 10.0686 19.027C12.3893 19.027 14.6149 18.1037 16.2558 16.4601C17.8968 14.8165 18.8186 12.5873 18.8186 10.2629C18.8186 7.93852 17.8968 5.70934 16.2558 4.06575C14.6149 2.42216 12.3893 1.4988 10.0686 1.4988C7.74799 1.4988 5.52239 2.42216 3.88145 4.06575C2.24051 5.70934 1.31863 7.93852 1.31863 10.2629ZM20.0686 10.2629C20.0686 12.9194 19.0151 15.467 17.1397 17.3454C15.2643 19.2238 12.7208 20.279 10.0686 20.279C7.41647 20.279 4.87293 19.2238 2.99757 17.3454C1.1222 15.467 0.068634 12.9194 0.068634 10.2629C0.068634 7.60647 1.1222 5.05883 2.99757 3.18044C4.87293 1.30205 7.41647 0.24678 10.0686 0.24678C12.7208 0.24678 15.2643 1.30205 17.1397 3.18044C19.0151 5.05883 20.0686 7.60647 20.0686 10.2629ZM10.6936 5.88085C10.6936 5.71483 10.6278 5.5556 10.5106 5.4382C10.3934 5.3208 10.2344 5.25484 10.0686 5.25484C9.90287 5.25484 9.7439 5.3208 9.62669 5.4382C9.50948 5.5556 9.44363 5.71483 9.44363 5.88085V13.1338L6.76113 10.4457C6.64378 10.3282 6.4846 10.2621 6.31863 10.2621C6.15266 10.2621 5.99349 10.3282 5.87613 10.4457C5.75878 10.5633 5.69284 10.7227 5.69284 10.8889C5.69284 11.0552 5.75878 11.2146 5.87613 11.3321L9.62613 15.0882C9.68419 15.1465 9.75316 15.1927 9.82909 15.2243C9.90502 15.2558 9.98643 15.2721 10.0686 15.2721C10.1508 15.2721 10.2322 15.2558 10.3082 15.2243C10.3841 15.1927 10.4531 15.1465 10.5111 15.0882L14.2611 11.3321C14.3785 11.2146 14.4444 11.0552 14.4444 10.8889C14.4444 10.7227 14.3785 10.5633 14.2611 10.4457C14.1438 10.3282 13.9846 10.2621 13.8186 10.2621C13.6527 10.2621 13.4935 10.3282 13.3761 10.4457L10.6936 13.1338V5.88085Z" fill="white"/>
</svg>
