<svg width="18" height="18" viewBox="0 0 18 18" fill="none" xmlns="http://www.w3.org/2000/svg">
<g clip-path="url(#clip0)">
<path d="M15.3359 15.3365H12.6688V11.1597C12.6688 10.1637 12.6511 8.88158 11.2817 8.88158C9.89263 8.88158 9.68007 9.96678 9.68007 11.0872V15.3362H7.01312V6.7471H9.57341V7.9209H9.60927C9.86549 7.48278 10.2357 7.12236 10.6806 6.87803C11.1255 6.6337 11.6283 6.5146 12.1355 6.53342C14.8386 6.53342 15.337 8.31148 15.337 10.6246L15.3359 15.3365ZM4.00374 5.57309C3.14895 5.57323 2.45588 4.88037 2.45574 4.02558C2.4556 3.17079 3.14839 2.47772 4.00318 2.47758C4.85797 2.47737 5.55104 3.17023 5.55118 4.02502C5.55125 4.43551 5.38827 4.82921 5.09807 5.11953C4.80787 5.40985 4.41423 5.573 4.00374 5.57309ZM5.33729 15.3365H2.66745V6.7471H5.33722V15.3365L5.33729 15.3365ZM16.6655 0.000684445H1.3273C0.602375 -0.00747181 0.00788281 0.573239 -0.000976562 1.29816V16.7003C0.00760156 17.4256 0.602023 18.0069 1.32723 17.9993H16.6655C17.3922 18.0083 17.989 17.427 17.999 16.7003V1.29697C17.9887 0.570638 17.3919 -0.0100031 16.6655 -0.000510868" fill="white"/>
</g>
<defs>
<clipPath id="clip0">
<rect width="18" height="18" fill="white"/>
</clipPath>
</defs>
</svg>
