<svg width="70" height="45" viewBox="0 0 70 45" fill="none" xmlns="http://www.w3.org/2000/svg">
<path d="M12.8957 28.6861L10.5917 28.6897L10.6014 35.0257L2.10537 35.039L2.06694 9.83901L14.1989 9.82001C16.5269 9.81636 18.5555 10.1972 20.2847 10.9625C22.0138 11.7278 23.3475 12.8297 24.2857 14.2682C25.2239 15.7067 25.6945 17.386 25.6974 19.306C25.7001 21.106 25.2945 22.6786 24.4806 24.0239C23.6666 25.3692 22.4923 26.439 20.9575 27.2334L26.2613 35.0011L17.1893 35.0154L12.8957 28.6861ZM17.1294 19.3194C17.128 18.3834 16.8389 17.6639 16.2621 17.1608C15.6853 16.6337 14.8209 16.371 13.6689 16.3728L10.5729 16.3777L10.5819 22.2817L13.6779 22.2768C14.8299 22.275 15.6935 22.0217 16.2688 21.5168C16.844 20.9879 17.1308 20.2554 17.1294 19.3194Z" fill="white"/>
<rect x="32.8671" y="4.99646" width="36.15" height="34.535" fill="white"/>
<path d="M46.8311 16.388H39.4511V9.8H62.7071V16.388H55.3271V35H46.8311V16.388Z" fill="#003052"/>
</svg>
