<svg width="18" height="18" viewBox="0 0 18 18" fill="none" xmlns="http://www.w3.org/2000/svg">
<g clip-path="url(#clip0)">
<path d="M18 2.19186C17.3377 2.5516 16.626 2.79473 15.879 2.90411C16.6415 2.3443 17.227 1.45782 17.5027 0.401589C16.7778 0.928486 15.9847 1.29972 15.1577 1.49924C14.484 0.620173 13.5243 0.0707855 12.4621 0.0707855C10.4226 0.0707855 8.76909 2.09609 8.76909 4.59404C8.76909 4.94861 8.80179 5.2938 8.86472 5.62495C5.79558 5.43625 3.07448 3.63547 1.25304 0.898786C0.935227 1.56685 0.753117 2.34395 0.753117 3.17281C0.753117 4.74217 1.40513 6.12662 2.39597 6.93783C1.80953 6.91533 1.23599 6.72132 0.723234 6.37199C0.723023 6.39094 0.723023 6.40989 0.723023 6.42892C0.723023 8.62053 1.99596 10.4488 3.68529 10.8643C3.14148 11.0455 2.57107 11.072 2.01762 10.9418C2.48752 12.7389 3.85137 14.0466 5.46729 14.0832C4.20342 15.2964 2.61105 16.0196 0.880945 16.0196C0.58282 16.0196 0.288914 15.9981 0 15.9563C1.63427 17.2398 3.57539 17.9886 5.66086 17.9886C12.4535 17.9886 16.1679 11.096 16.1679 5.11862C16.1679 4.92243 16.1644 4.72736 16.1573 4.53341C16.8802 3.89323 17.5042 3.10031 18 2.19186Z" fill="white"/>
</g>
<defs>
<clipPath id="clip0">
<rect width="18" height="18" fill="white"/>
</clipPath>
</defs>
</svg>
